# Blender v2.79 (sub 0) OBJ File: 'blocks.blend'
# www.blender.org
mtllib stair1.mtl
o stair1_Cube.000
v -0.000000 0.000000 1.000000
v -0.000000 1.000000 0.500000
v -1.000000 0.000000 1.000000
v -1.000000 1.000000 0.500000
v -0.000000 0.000000 0.000000
v -0.000000 1.000000 0.000000
v -1.000000 0.000000 0.000000
v -1.000000 1.000000 0.000000
v -0.000000 0.500000 0.500000
v -1.000000 0.500000 0.500000
v -0.000000 0.500000 1.000000
v -1.000000 0.500000 1.000000
vt 0.000000 0.031250
vt 0.000000 0.062500
vt 0.062500 0.062500
vt 0.062500 0.031250
vt 0.031250 0.062500
vt 0.062500 0.062500
vt 0.062500 0.000000
vt 0.031250 0.031250
vt 0.000000 0.000000
vt 0.000000 0.062500
vt 0.000000 0.031250
vt 0.000000 0.000000
vt 0.000000 0.062500
vt 0.062500 0.062500
vt 0.062500 0.000000
vt 0.000000 0.000000
vt 0.031250 0.000000
vt 0.062500 0.000000
vt 0.031250 0.031250
vt 0.000000 0.031250
vt 0.062500 0.031250
vt 0.062500 0.000000
vt 0.062500 0.062500
vt 0.031250 0.062500
vt 0.000000 0.062500
vt 0.000000 0.000000
vt 0.031250 0.000000
vt 0.031250 0.062500
vn -0.0000 0.0000 1.0000
vn -1.0000 0.0000 0.0000
vn 0.0000 0.0000 -1.0000
vn 0.0000 -1.0000 0.0000
vn 0.0000 1.0000 0.0000
vn 1.0000 0.0000 0.0000
usemtl None
s off
f 9/1/1 2/2/1 4/3/1 10/4/1
f 4/5/2 8/6/2 7/7/2 10/8/2
f 5/9/3 7/7/3 8/6/3 6/10/3
f 12/11/2 10/8/2 7/7/2 3/12/2
f 3/13/4 7/14/4 5/15/4 1/16/4
f 8/6/5 4/5/5 2/17/5 6/18/5
f 5/15/6 9/19/6 11/20/6 1/16/6
f 1/16/1 11/20/1 12/21/1 3/22/1
f 9/19/6 5/15/6 6/23/6 2/24/6
f 12/25/5 11/26/5 9/27/5 10/28/5
