# Blender v2.79 (sub 0) OBJ File: 'blocks.blend'
# www.blender.org
o Flame
v -0.000000 0.720000 0.000000
v -0.070711 0.560000 -0.070711
v 0.070711 0.560000 -0.070711
v -0.070711 0.560000 0.070711
v 0.070711 0.560000 0.070711
v 0.000000 0.400000 0.000000
vt 0.975385 0.934409
vt 0.968836 0.906841
vt 0.981934 0.906841
vt 0.988483 0.934409
vt 0.995032 0.906841
vt 0.949189 0.934409
vt 0.942640 0.906841
vt 0.955738 0.906841
vt 0.962287 0.934409
vt 0.975385 0.879273
vt 0.988483 0.879273
vt 0.949189 0.879273
vt 0.962287 0.879273
vn 0.0000 0.4042 -0.9147
vn -0.9147 0.4042 0.0000
vn 0.0000 0.4042 0.9147
vn 0.9147 0.4042 0.0000
vn 0.0000 -0.4042 -0.9147
vn -0.9147 -0.4042 0.0000
vn 0.0000 -0.4042 0.9147
vn 0.9147 -0.4042 0.0000
s off
f 1/1/1 3/2/1 2/3/1
f 1/4/2 2/3/2 4/5/2
f 1/6/3 4/7/3 5/8/3
f 1/9/4 5/8/4 3/2/4
f 6/10/5 2/3/5 3/2/5
f 6/11/6 4/5/6 2/3/6
f 6/12/7 5/8/7 4/7/7
f 6/13/8 3/2/8 5/8/8
o Torch.001_Torch
v -0.050000 0.000000 0.050000
v 0.050000 0.000000 -0.050000
v -0.050000 0.000000 -0.050000
v 0.050000 0.000000 0.050000
v 0.050000 0.600000 0.050000
v -0.050000 0.600000 0.050000
v 0.050000 0.600000 -0.050000
v -0.050000 0.600000 -0.050000
vt 0.472656 0.175781
vt 0.472656 0.183594
vt 0.464844 0.183594
vt 0.464844 0.175781
vt 0.464844 0.128906
vt 0.472656 0.128906
vt 0.472656 0.183594
vt 0.464844 0.183594
vt 0.464844 0.128906
vt 0.472656 0.128906
vt 0.472656 0.183594
vt 0.464844 0.183594
vt 0.464844 0.128906
vt 0.472656 0.128906
vt 0.472656 0.183594
vt 0.464844 0.183594
vt 0.464844 0.128906
vt 0.472656 0.128906
vt 0.472656 0.183594
vt 0.464844 0.183594
vt 0.464844 0.175781
vt 0.472656 0.175781
vn 0.0000 -1.0000 0.0000
vn 0.0000 0.0000 1.0000
vn 1.0000 0.0000 0.0000
vn 0.0000 0.0000 -1.0000
vn -1.0000 0.0000 0.0000
vn 0.0000 1.0000 0.0000
s off
f 7/14/9 9/15/9 8/16/9
f 8/16/9 10/17/9 7/14/9
f 7/18/10 10/19/10 11/20/10
f 11/20/10 12/21/10 7/18/10
f 10/22/11 8/23/11 13/24/11
f 13/24/11 11/25/11 10/22/11
f 8/26/12 9/27/12 14/28/12
f 14/28/12 13/29/12 8/26/12
f 9/30/13 7/31/13 12/32/13
f 12/32/13 14/33/13 9/30/13
f 14/33/14 12/34/14 11/35/14
f 14/33/14 11/35/14 13/24/14
